# xmcd CD database file
#
# Track frame offsets:
#	150
#	14887
#	30218
#	48501
#	70882
#	88675
#	110836
#	128160
#	145151
#	162668
#	189966
#	209504
#	219901
#	241710
#	261248
#	274154
#
# Disc length: 3915 seconds
#
# Revision: 4
# Processed by: cddbd v1.5.2PL0 Copyright (c) Steve Scherf et al.
# Submitted via: CDex 1.81
#
DISCID=ed0f4910
DTITLE=Joscho Stephan - Guitar Heroes
DYEAR=2015
DGENRE=Jazz
TTITLE0=Blues For Tommy
TTITLE1=Love's Melody
TTITLE2=Hungaria
TTITLE3=Swing 42
TTITLE4=Double Jeu
TTITLE5=Song For Bireli
TTITLE6=Hey Joe
TTITLE7=Something
TTITLE8=Blues For Stochelo
TTITLE9=Breezin'
TTITLE10=Blue Drag
TTITLE11=Bye Bye Blues
TTITLE12=Black Orpheus
TTITLE13=Seven Come Eleven
TTITLE14=Swinging Strings
TTITLE15=Samba Pa Ti
EXTD=YEAR: 2015
EXTT0=
EXTT1=
EXTT2=
EXTT3=
EXTT4=
EXTT5=
EXTT6=
EXTT7=
EXTT8=
EXTT9=
EXTT10=
EXTT11=
EXTT12=
EXTT13=
EXTT14=
EXTT15=
PLAYORDER=
